<?xml version="1.0" encoding="UTF-8" standalone="no"?>
<svg
   version="1.1"
   style="display: block;"
   viewBox="0 0 2048 448"
   width="1170"
   height="256"
   preserveAspectRatio="none"
   id="svg13"
   sodipodi:docname="oddfruit_white.svg"
   inkscape:version="1.4.4 (dcaf3e7, 2026-05-05)"
   xmlns:inkscape="http://www.inkscape.org/namespaces/inkscape"
   xmlns:sodipodi="http://sodipodi.sourceforge.net/DTD/sodipodi-0.dtd"
   xmlns="http://www.w3.org/2000/svg"
   xmlns:svg="http://www.w3.org/2000/svg">
  <defs
     id="defs13" />
  <sodipodi:namedview
     id="namedview13"
     pagecolor="#ffffff"
     bordercolor="#000000"
     borderopacity="0.25"
     inkscape:showpageshadow="2"
     inkscape:pageopacity="0.0"
     inkscape:pagecheckerboard="0"
     inkscape:deskcolor="#d1d1d1"
     inkscape:zoom="0.74700855"
     inkscape:cx="584.33066"
     inkscape:cy="127.84325"
     inkscape:window-width="1919"
     inkscape:window-height="624"
     inkscape:window-x="2351"
     inkscape:window-y="615"
     inkscape:window-maximized="0"
     inkscape:current-layer="svg13" />
  <path
     transform="translate(0,0)"
     fill="rgb(255,255,255)"
     d="M 0 0 L 2048 0 L 2048 448 L 0 448 L 0 0 z"
     id="path1"
     style="fill:#ffffff;fill-opacity:1;stroke:#000000;stroke-opacity:1" />
  <path
     transform="translate(0,0)"
     fill="rgb(31,34,38)"
     d="M 908.564 26.9606 L 962.767 26.8833 L 962.876 211.833 C 962.883 243.782 965.145 282.371 960.404 313.349 C 950.525 377.891 902.714 420.177 838.382 426.759 C 801.152 430.569 758.865 418.935 729.672 394.593 C 703.581 371.916 687.416 339.068 682.608 305.406 C 666.347 191.563 784.575 100.813 886.266 161.785 C 893.283 165.993 901.494 174.802 908.208 180.216 C 908.006 129.949 907.364 77.0382 908.564 26.9606 z"
     id="path2"
     style="fill:#ffffff;fill-opacity:1;stroke:#000000;stroke-opacity:1" />
  <path
     transform="translate(0,0)"
     fill="rgb(255,255,255)"
     d="M 815.48 194.357 C 865.497 190.29 909.347 227.526 913.441 277.541 C 917.534 327.556 880.323 371.426 830.31 375.546 C 780.259 379.67 736.348 342.423 732.252 292.37 C 728.155 242.317 765.425 198.426 815.48 194.357 z"
     id="path3"
     style="fill:#ffffff;fill-opacity:1;stroke:#000000;stroke-opacity:1" />
  <path
     transform="translate(0,0)"
     fill="rgb(31,34,38)"
     d="M 576.331 26.7671 L 629.374 26.8254 C 630.527 110.338 628.884 194.084 629.669 277.618 C 629.802 291.866 629.44 305.868 626.67 319.901 C 606.479 422.16 474.655 461.259 397.711 395.22 C 364.753 364.314 352.338 338.441 349.124 292.632 C 342.419 197.073 429.307 121.668 522.782 147.664 C 543.689 153.478 560.524 166.66 576.37 181.527 C 574.793 133.783 576.032 74.8816 576.331 26.7671 z"
     id="path4"
     style="fill:#ffffff;fill-opacity:1;stroke:#000000;stroke-opacity:1" />
  <path
     transform="translate(0,0)"
     fill="rgb(255,255,255)"
     d="M 482.597 191.355 C 594.569 182.906 617.463 362.712 497.357 377.642 C 473.228 380.384 453.798 373.062 433.894 358.287 C 396.595 330.6 392.199 263.413 419.068 227.606 C 434.54 206.988 456.359 194.576 482.597 191.355 z"
     id="path5"
     style="fill:#ffffff;fill-opacity:1;stroke:#000000;stroke-opacity:1" />
  <path
     transform="translate(0,0)"
     fill="rgb(31,34,38)"
     d="M 156.2 141.861 C 235.101 138.446 301.899 199.496 305.578 278.385 C 309.257 357.274 248.431 424.276 169.555 428.219 C 90.3047 432.181 22.9151 371.004 19.2184 291.74 C 15.5217 212.477 76.9247 145.292 156.2 141.861 z"
     id="path6"
     style="fill:#ffffff;fill-opacity:1;stroke:#000000;stroke-opacity:1" />
  <path
     transform="translate(0,0)"
     fill="rgb(255,255,255)"
     d="M 151.621 193.681 C 201.735 187.687 247.273 223.314 253.513 273.399 C 259.754 323.483 224.35 369.195 174.298 375.682 C 123.896 382.213 77.7945 346.509 71.5106 296.076 C 65.2267 245.642 101.157 199.717 151.621 193.681 z"
     id="path7"
     style="fill:#ffffff;fill-opacity:1;stroke:#000000;stroke-opacity:1" />
  <path
     transform="translate(0,0)"
     fill="rgb(31,34,38)"
     d="M 1441.99 147.55 L 1495.21 147.674 L 1495.19 246.741 C 1495.12 273.905 1494 296.016 1498.07 324.231 C 1506 379.197 1571.72 393.617 1609.76 359.742 C 1636.31 336.105 1631.96 281.233 1631.95 246.712 L 1632.11 147.882 C 1649.8 147.977 1667.71 147.73 1685.42 147.634 C 1685.83 172.421 1685.44 198.222 1685.4 223.086 L 1685.23 421.978 C 1670.65 422.084 1647.84 422.724 1633.94 421.369 C 1632.48 412.896 1632.11 402.774 1631.84 394.138 C 1631.01 395.132 1630.14 396.086 1629.22 396.997 C 1588.45 437.192 1515.87 438.038 1474.78 397.73 C 1435.71 359.393 1441.65 300.304 1441.67 249.892 C 1441.58 215.777 1441.69 181.663 1441.99 147.55 z"
     id="path8"
     style="fill:#ffffff;fill-opacity:1;stroke:#000000;stroke-opacity:1" />
  <path
     transform="translate(0,0)"
     fill="rgb(31,34,38)"
     d="M 1157.66 20.3993 C 1168.69 18.2276 1191.51 22.4551 1202.3 25.8336 C 1201.16 37.6061 1197.75 59.5744 1195.47 70.8835 C 1173.02 66.7844 1148.85 64.3247 1131.64 82.6528 C 1116.6 98.659 1119.09 126.953 1119.2 147.476 C 1139.17 148.368 1164.36 147.797 1184.66 147.875 L 1184.65 193.249 C 1163.04 193.58 1140.83 193.337 1119.17 193.328 L 1119.38 400.863 L 1119.37 421.962 L 1065 421.993 C 1064.08 346.513 1064.97 268.938 1065 193.301 C 1051.37 193.609 1037.73 193.676 1024.09 193.5 L 1024.12 147.691 C 1037.7 147.814 1051.48 147.661 1065.07 147.631 C 1064.34 78.04 1080.32 28.3734 1157.66 20.3993 z"
     id="path9"
     style="fill:#ffffff;fill-opacity:1;stroke:#000000;stroke-opacity:1" />
  <path
     transform="translate(0,0)"
     fill="rgb(31,34,38)"
     d="M 1903.19 65.3028 C 1921.02 65.1401 1938.85 65.0935 1956.68 65.1631 C 1956.34 92.6354 1956.37 120.111 1956.76 147.583 C 1979.06 148.179 2003.09 147.773 2025.53 147.778 L 2025.81 192.863 C 2002.74 193.058 1979.66 193.071 1956.59 192.901 C 1955.98 220.872 1956.7 249.293 1956.52 277.334 C 1956.92 296.722 1955.21 316.341 1956.94 335.678 C 1960.66 377.002 1996.24 385.633 2029.17 370.138 C 2029.76 376.105 2030.66 382.061 2031.5 388 L 2036.22 417.299 C 2022.64 422.931 2008.09 425.896 1993.39 426.031 C 1971.72 426.153 1943.74 418.356 1928.28 402.568 C 1898.68 372.344 1902.94 323.267 1902.87 284.484 L 1902.72 193.162 L 1869.21 193.346 C 1868.98 178.147 1869.08 162.945 1869.5 147.75 L 1902.92 147.945 C 1902.82 120.397 1902.91 92.8492 1903.19 65.3028 z"
     id="path10"
     style="fill:#ffffff;fill-opacity:1;stroke:#000000;stroke-opacity:1" />
  <path
     transform="translate(0,0)"
     fill="rgb(31,34,38)"
     d="M 1371.67 143.427 C 1377.3 143.349 1385.35 143.968 1391.14 144.238 C 1391.53 160.463 1391.03 178.76 1390.95 195.15 C 1385.79 195.002 1380.63 194.915 1375.47 194.889 C 1343.79 194.893 1309.61 209.492 1301.06 243.105 C 1293.96 271.027 1295.88 304.202 1295.88 333.282 L 1295.94 421.961 L 1241.75 422 L 1241.75 409.109 L 1241.94 147.345 C 1258.11 147.953 1276.29 147.566 1292.76 147.896 C 1293.32 159.97 1294.03 172.036 1294.89 184.092 C 1313.46 157.09 1339.14 145.097 1371.67 143.427 z"
     id="path11"
     style="fill:#ffffff;fill-opacity:1;stroke:#000000;stroke-opacity:1" />
  <path
     transform="translate(0,0)"
     fill="rgb(31,34,38)"
     d="M 1759.8 147.421 L 1813.14 147.314 L 1813.35 349.375 C 1813.36 362.736 1815.16 412.007 1812.85 421.921 L 1759.58 421.95 C 1757.36 356.542 1760.46 288.988 1759.29 223.386 C 1758.86 199.325 1758.31 171.188 1759.8 147.421 z"
     id="path12"
     style="fill:#ffffff;fill-opacity:1;stroke:#000000;stroke-opacity:1" />
  <path
     transform="translate(0,0)"
     fill="rgb(31,34,38)"
     d="M 1779.81 34.7813 C 1791.86 32.5337 1804.19 36.9314 1812.1 46.298 C 1820 55.6645 1822.27 68.5565 1818.04 80.0593 C 1813.8 91.5621 1803.71 99.9032 1791.62 101.903 C 1773.18 104.951 1755.73 92.5868 1752.5 74.1853 C 1749.26 55.7837 1761.44 38.2071 1779.81 34.7813 z"
     id="path13"
     style="fill:#ffffff;fill-opacity:1;stroke:#000000;stroke-opacity:1" />
</svg>
