<?xml version="1.0" encoding="UTF-8" standalone="no"?>
<svg
   version="1.1"
   style="display: block;"
   viewBox="0 0 2048 448"
   width="1170"
   height="256"
   preserveAspectRatio="none"
   id="svg13"
   sodipodi:docname="oddfruit-logo-white.svg"
   inkscape:version="1.4.4 (dcaf3e7, 2026-05-05)"
   xmlns:inkscape="http://www.inkscape.org/namespaces/inkscape"
   xmlns:sodipodi="http://sodipodi.sourceforge.net/DTD/sodipodi-0.dtd"
   xmlns="http://www.w3.org/2000/svg"
   xmlns:svg="http://www.w3.org/2000/svg">
  <defs
     id="defs13" />
  <sodipodi:namedview
     id="namedview13"
     pagecolor="#ffffff"
     bordercolor="#000000"
     borderopacity="0.25"
     inkscape:showpageshadow="2"
     inkscape:pageopacity="0.0"
     inkscape:pagecheckerboard="0"
     inkscape:deskcolor="#d1d1d1"
     inkscape:zoom="0.74700855"
     inkscape:cx="584.33066"
     inkscape:cy="127.84325"
     inkscape:window-width="1919"
     inkscape:window-height="624"
     inkscape:window-x="2351"
     inkscape:window-y="559"
     inkscape:window-maximized="0"
     inkscape:current-layer="svg13" />
  <path
     transform="translate(0,0)"
     fill="rgb(255,255,255)"
     d="M 0 0 L 2048 0 L 2048 448 L 0 448 L 0 0 z"
     id="path1"
     style="fill:none;fill-opacity:1;stroke:none;stroke-opacity:1;stroke-width:0.999372;stroke-dasharray:none" />
  <path
     id="path2"
     style="fill:#ffffff;fill-opacity:1;stroke:#000000;stroke-opacity:1"
     d="M 962.76581 26.882324 L 908.5641 26.960938 C 907.3641 77.038537 908.00655 129.94882 908.20855 180.21582 C 901.49455 174.80182 893.28367 165.99413 886.26667 161.78613 C 784.57567 100.81413 666.34755 191.56276 682.60855 305.40576 C 687.41655 339.06776 703.58079 371.91724 729.67179 394.59424 C 758.86479 418.93624 801.15291 430.56732 838.38291 426.75732 C 902.71491 420.17532 950.52442 377.89112 960.40342 313.34912 C 965.14442 282.37112 962.88221 243.78103 962.87521 211.83203 L 962.76581 26.882324 z M 824.77607 194.07227 C 870.8213 194.99519 909.60119 230.65342 913.43932 277.54248 C 917.53232 327.55748 880.32411 371.4259 830.31111 375.5459 C 780.26011 379.6699 736.34899 342.42263 732.25299 292.36963 C 728.15599 242.31663 765.42534 198.42496 815.48034 194.35596 C 818.6064 194.10177 821.70639 194.01074 824.77607 194.07227 z "
     transform="translate(0,0)" />
  <path
     id="path4"
     style="fill:#ffffff;fill-opacity:1;stroke:#000000;stroke-opacity:1"
     d="M 576.33162 26.766113 C 576.03262 74.880613 574.79223 133.78432 576.36923 181.52832 C 560.52323 166.66132 543.68991 153.47709 522.78291 147.66309 C 429.30791 121.66709 342.41979 197.07381 349.12479 292.63281 C 352.33879 338.44181 364.7514 364.31373 397.7094 395.21973 C 474.6534 461.25873 606.47909 422.16037 626.67009 319.90137 C 629.44009 305.86837 629.80138 291.86568 629.66838 277.61768 C 628.88338 194.08368 630.52736 110.33682 629.37436 26.824219 L 576.33162 26.766113 z M 492.83077 191.10205 C 595.85924 193.98126 613.70995 363.17768 497.35726 377.64111 C 473.22826 380.38311 453.79802 373.06357 433.89402 358.28857 C 396.59502 330.60157 392.19767 263.41296 419.06667 227.60596 C 434.53867 206.98796 456.36029 194.57598 482.59829 191.35498 C 486.09742 191.09095 489.50727 191.00917 492.83077 191.10205 z "
     transform="translate(0,0)" />
  <path
     id="path6"
     style="fill:#ffffff;fill-opacity:1;stroke:#000000;stroke-opacity:1"
     d="M 156.19829 141.85938 C 76.922991 145.29038 15.520394 212.47772 19.217094 291.74072 C 22.913794 371.00472 90.305256 432.18221 169.55556 428.22021 C 248.43156 424.27721 309.25849 357.2723 305.57949 278.3833 C 301.90049 199.4943 235.09929 138.44438 156.19829 141.85938 z M 160.95385 193.03662 C 207.27232 192.19523 247.66453 226.44521 253.51453 273.3999 C 259.75553 323.4839 224.34944 369.19562 174.29744 375.68262 C 123.89544 382.21362 77.795011 346.50771 71.511111 296.07471 C 65.227211 245.64071 101.15651 199.71862 151.62051 193.68262 C 154.75264 193.30799 157.86595 193.09271 160.95385 193.03662 z "
     transform="translate(0,0)" />
  <path
     transform="translate(0,0)"
     fill="rgb(31,34,38)"
     d="M 1441.99 147.55 L 1495.21 147.674 L 1495.19 246.741 C 1495.12 273.905 1494 296.016 1498.07 324.231 C 1506 379.197 1571.72 393.617 1609.76 359.742 C 1636.31 336.105 1631.96 281.233 1631.95 246.712 L 1632.11 147.882 C 1649.8 147.977 1667.71 147.73 1685.42 147.634 C 1685.83 172.421 1685.44 198.222 1685.4 223.086 L 1685.23 421.978 C 1670.65 422.084 1647.84 422.724 1633.94 421.369 C 1632.48 412.896 1632.11 402.774 1631.84 394.138 C 1631.01 395.132 1630.14 396.086 1629.22 396.997 C 1588.45 437.192 1515.87 438.038 1474.78 397.73 C 1435.71 359.393 1441.65 300.304 1441.67 249.892 C 1441.58 215.777 1441.69 181.663 1441.99 147.55 z"
     id="path8"
     style="fill:#ffffff;fill-opacity:1;stroke:#000000;stroke-opacity:1" />
  <path
     transform="translate(0,0)"
     fill="rgb(31,34,38)"
     d="M 1157.66 20.3993 C 1168.69 18.2276 1191.51 22.4551 1202.3 25.8336 C 1201.16 37.6061 1197.75 59.5744 1195.47 70.8835 C 1173.02 66.7844 1148.85 64.3247 1131.64 82.6528 C 1116.6 98.659 1119.09 126.953 1119.2 147.476 C 1139.17 148.368 1164.36 147.797 1184.66 147.875 L 1184.65 193.249 C 1163.04 193.58 1140.83 193.337 1119.17 193.328 L 1119.38 400.863 L 1119.37 421.962 L 1065 421.993 C 1064.08 346.513 1064.97 268.938 1065 193.301 C 1051.37 193.609 1037.73 193.676 1024.09 193.5 L 1024.12 147.691 C 1037.7 147.814 1051.48 147.661 1065.07 147.631 C 1064.34 78.04 1080.32 28.3734 1157.66 20.3993 z"
     id="path9"
     style="fill:#ffffff;fill-opacity:1;stroke:#000000;stroke-opacity:1" />
  <path
     transform="translate(0,0)"
     fill="rgb(31,34,38)"
     d="M 1903.19 65.3028 C 1921.02 65.1401 1938.85 65.0935 1956.68 65.1631 C 1956.34 92.6354 1956.37 120.111 1956.76 147.583 C 1979.06 148.179 2003.09 147.773 2025.53 147.778 L 2025.81 192.863 C 2002.74 193.058 1979.66 193.071 1956.59 192.901 C 1955.98 220.872 1956.7 249.293 1956.52 277.334 C 1956.92 296.722 1955.21 316.341 1956.94 335.678 C 1960.66 377.002 1996.24 385.633 2029.17 370.138 C 2029.76 376.105 2030.66 382.061 2031.5 388 L 2036.22 417.299 C 2022.64 422.931 2008.09 425.896 1993.39 426.031 C 1971.72 426.153 1943.74 418.356 1928.28 402.568 C 1898.68 372.344 1902.94 323.267 1902.87 284.484 L 1902.72 193.162 L 1869.21 193.346 C 1868.98 178.147 1869.08 162.945 1869.5 147.75 L 1902.92 147.945 C 1902.82 120.397 1902.91 92.8492 1903.19 65.3028 z"
     id="path10"
     style="fill:#ffffff;fill-opacity:1;stroke:#000000;stroke-opacity:1" />
  <path
     transform="translate(0,0)"
     fill="rgb(31,34,38)"
     d="M 1371.67 143.427 C 1377.3 143.349 1385.35 143.968 1391.14 144.238 C 1391.53 160.463 1391.03 178.76 1390.95 195.15 C 1385.79 195.002 1380.63 194.915 1375.47 194.889 C 1343.79 194.893 1309.61 209.492 1301.06 243.105 C 1293.96 271.027 1295.88 304.202 1295.88 333.282 L 1295.94 421.961 L 1241.75 422 L 1241.75 409.109 L 1241.94 147.345 C 1258.11 147.953 1276.29 147.566 1292.76 147.896 C 1293.32 159.97 1294.03 172.036 1294.89 184.092 C 1313.46 157.09 1339.14 145.097 1371.67 143.427 z"
     id="path11"
     style="fill:#ffffff;fill-opacity:1;stroke:#000000;stroke-opacity:1" />
  <path
     transform="translate(0,0)"
     fill="rgb(31,34,38)"
     d="M 1759.8 147.421 L 1813.14 147.314 L 1813.35 349.375 C 1813.36 362.736 1815.16 412.007 1812.85 421.921 L 1759.58 421.95 C 1757.36 356.542 1760.46 288.988 1759.29 223.386 C 1758.86 199.325 1758.31 171.188 1759.8 147.421 z"
     id="path12"
     style="fill:#ffffff;fill-opacity:1;stroke:#000000;stroke-opacity:1" />
  <path
     transform="translate(0,0)"
     fill="rgb(31,34,38)"
     d="M 1779.81 34.7813 C 1791.86 32.5337 1804.19 36.9314 1812.1 46.298 C 1820 55.6645 1822.27 68.5565 1818.04 80.0593 C 1813.8 91.5621 1803.71 99.9032 1791.62 101.903 C 1773.18 104.951 1755.73 92.5868 1752.5 74.1853 C 1749.26 55.7837 1761.44 38.2071 1779.81 34.7813 z"
     id="path13"
     style="fill:#ffffff;fill-opacity:1;stroke:#000000;stroke-opacity:1" />
</svg>
