<?xml version="1.0" encoding="UTF-8" standalone="no"?>
<svg
   viewBox="0 0 1068 902"
   role="img"
   aria-labelledby="title desc"
   version="1.1"
   id="svg2"
   sodipodi:docname="oddfruit-orbit-logo-mark-white.svg"
   inkscape:version="1.4.4 (dcaf3e7, 2026-05-05)"
   xmlns:inkscape="http://www.inkscape.org/namespaces/inkscape"
   xmlns:sodipodi="http://sodipodi.sourceforge.net/DTD/sodipodi-0.dtd"
   xmlns="http://www.w3.org/2000/svg"
   xmlns:svg="http://www.w3.org/2000/svg"
   xmlns:rdf="http://www.w3.org/1999/02/22-rdf-syntax-ns#"
   xmlns:cc="http://creativecommons.org/ns#"
   xmlns:dc="http://purl.org/dc/elements/1.1/">
  <defs
     id="defs2" />
  <sodipodi:namedview
     id="namedview2"
     pagecolor="#ffffff"
     bordercolor="#000000"
     borderopacity="0.25"
     inkscape:showpageshadow="2"
     inkscape:pageopacity="0.0"
     inkscape:pagecheckerboard="0"
     inkscape:deskcolor="#d1d1d1"
     inkscape:zoom="0.57866229"
     inkscape:cx="460.54496"
     inkscape:cy="475.23401"
     inkscape:window-width="1773"
     inkscape:window-height="1081"
     inkscape:window-x="2409"
     inkscape:window-y="227"
     inkscape:window-maximized="0"
     inkscape:current-layer="svg2" />
  <title
     id="title">oddfruit orbit logo mark</title>
  <desc
     id="desc">A black lowercase of monogram with open orange orbit arcs around the o.</desc>
  <path
     d="m 66,700 c 7.795847,21.21972 25.981032,37.30776 41.05816,53.74823 30.12182,30.35747 64.44035,56.64726 102.383,76.21254 69.41479,38.12467 150.0879,54.75895 229.03037,50.1898 73.91218,-4.76445 147.08222,-27.8993 208.92393,-69.0296 25.20273,-16.61581 49.32212,-35.57796 71.33169,-56.19935 15.30648,-14.72826 15.26555,-16.71838 -2.58165,-3.92956 -28.72439,17.96355 -61.92506,29.71561 -95.31454,33.46568 -11.11892,4.03029 -21.71363,12.93728 -33.74923,16.69867 -46.79111,24.61226 -99.02949,36.14669 -151.23592,41.5872 C 397.99768,845.4446 359.65094,843.14611 322.52842,836 260.31929,824.77001 200.63719,798.9625 149.88604,761.09263 122.15701,743.50558 100.16274,718.91621 77,696 68.305677,688.9582 63.574771,689.77377 66,700 Z M 647,100 C 620.01239,76.258597 586.18813,61.453864 553.58274,46.97842 499.57177,25.748265 440.89226,17.434625 383.05675,20.885722 341.71304,23.722663 299.88303,32.203208 262,48 225.77466,60.053115 192.00136,80.526197 161.16099,103.30629 118.87614,134.6704 82.865053,174.8164 55.585855,219.78039 c -12.282693,21.87904 -25.570501,42.49527 -31.927798,66.94019 -2.115883,25.98128 4.084127,21.80307 14.572438,1.3996 32.3458,-64.905 83.948165,-118.85292 143.603855,-159.42079 C 240.46309,90.658451 308.18073,66.99827 377.47158,59 c 26.30998,-1.683464 52.53906,-4.055145 78.99923,-2.115191 58.353,5.561183 116.66483,18.873453 168.65858,46.844891 C 652.34131,116.14831 663.44027,115.57807 647,100 Z"
     fill="#ff8617"
     fill-rule="evenodd"
     id="path1"
     sodipodi:nodetypes="ccccccccccccccccccccccccccc" />
  <path
     d="M 1047,47 C 1024.0043,30.075016 993.82071,25.383142 966,21 914.53027,17.443661 861.53878,31.49533 821.08028,64.12869 c -51.40602,40.57604 -79.08141,105.62649 -82.43794,170.16325 -2.51793,22.18433 1.93275,46.27649 -2.29378,67.3595 C 711.52119,302.46489 686.06801,301.7675 661,302 620.974,240.96505 556.02416,196.33905 483.94057,183.34142 c -63.25238,-11.19051 -130.8282,-0.89531 -185.9413,32.97475 -62.4925,36.42186 -109.45714,98.33085 -127.0553,168.66312 -15.68193,63.26993 -9.35984,132.07612 20.78695,190.2518 24.59521,46.46408 61.88219,86.1729 107.4281,112.60534 56.68967,34.76085 127.22703,44.5043 191.92497,30.98341 C 587.47292,697.76627 669.44216,620.81006 696.14681,525.76549 709.11166,480.78547 709.50938,432.35071 698,387 c 13.01951,1.12009 28.37645,-3.61976 40,1 -0.8804,58.17318 1.79124,116.55871 -1.39131,174.59426 -3.81386,45.32747 -26.36814,90.57815 -66.61333,113.98048 -15.79724,13.00109 -48.39069,11.11166 -49.05763,37.09582 C 620.62515,737.11371 620.31258,760.55685 620,784 677.49272,775.96074 732.78999,748.21446 769.55737,702.7388 814.5422,651.35144 828.3878,580.24082 825,513.62574 825,471.7505 825,429.87525 825,388 c 14.54003,-4.76251 32.77777,-0.59795 48.70974,-2 25.11724,-1.10404 51.04806,2.21294 75.65523,-1.66285 13.25392,-3.68191 29.71687,-10.56336 24.85396,-27.34836 C 973.18074,338.77577 977.49497,319.57527 973,302 c -49.33333,-0.33333 -98.66667,-0.66667 -148,-1 -1.38691,-47.88732 -0.43797,-99.19446 27.49193,-140.33188 26.45311,-41.83448 81.10263,-60.25954 128.11927,-46.54588 14.35732,1.26462 33.4011,20.23832 44.3373,3.74356 8.4443,-20.590885 14.1185,-42.698086 22.0515,-63.201287 0,-2.554838 0,-5.109675 0,-7.664513 z M 422,269 c 43.56521,-1.79438 87.60773,10.87558 122.19071,37.73655 36.96062,29.01034 64.27365,71.63023 70.30561,118.74505 7.23748,38.9 -1.66324,79.5431 -19.9539,114.31732 -18.31942,30.55654 -43.51606,56.85562 -75.12747,73.7552 -50.46463,28.12842 -114.62823,28.911 -166.02812,2.32595 C 295.15194,586.77241 253.18794,524.86852 251.1459,459.3313 249.58912,404.18838 274.1731,349.2892 316.21749,313.59121 345.49746,286.95738 383.10023,273.50565 422,269 Z"
     fill="#1d1a19"
     fill-rule="evenodd"
     id="path2"
     style="fill:#ffffff;fill-opacity:1" />
  <metadata
     id="metadata2">
    <rdf:RDF>
      <cc:Work
         rdf:about="">
        <dc:title>oddfruit orbit logo mark</dc:title>
      </cc:Work>
    </rdf:RDF>
  </metadata>
</svg>
